# xmcd CD database file
#
# Track frame offsets:
#	150
#	14357
#	25754
#	38316
#	48206
#	63684
#	79170
#	93912
#	104495
#	119593
#	129391
#	144849
#
# Disc length: 2099 seconds
#
# Revision: 3
# Processed by: cddbd v1.5.1PL2 Copyright (c) Steve Scherf et al.
# Submitted via: CDex 1.51
#
DISCID=9308310c
DTITLE=Peggy Lee - Black Coffee 
DYEAR=2004
DGENRE=Jazz
TTITLE0=Black Coffee
TTITLE1=I've Got You Under My Skin
TTITLE2=Easy Living
TTITLE3=My Heart Belongs To Daddy
TTITLE4=It Ain't Necessarily So
TTITLE5=Gee, Baby, Ain't I Good To You
TTITLE6=A Woman Alone With The Blues
TTITLE7=I Didn't Know What Time It Was
TTITLE8=(Ah, the Apple Trees) When The World Was Young
TTITLE9=Love Me Or Leave Me
TTITLE10=You're My Thrill
TTITLE11=There's A Small Hotel
EXTD=YEAR: 2004
EXTT0=
EXTT1=
EXTT2=
EXTT3=
EXTT4=
EXTT5=
EXTT6=
EXTT7=
EXTT8=
EXTT9=
EXTT10=
EXTT11=
PLAYORDER=
